<svg preserveAspectRatio="none" overflow="visible" style="display: block;" width="122.693" height="61" viewBox="0 0 122.693 61" fill="none" xmlns="http://www.w3.org/2000/svg">
<g id="Frame 290">
<path id="Path 1" d="M90.7014 40.723L86.3917 41.2327L83.3649 41.6106L74.5918 42.9947L71.9851 43.4833L59.0737 46.4391L55.4491 47.348L47.1465 49.6948L46.9031 49.3197L53.2039 47.0808C60.4819 44.4948 67.7806 42.6452 75.3335 40.9582L77.5843 40.4556L79.8754 39.9961L82.3698 39.5095L84.8892 39.0332L87.85 38.5731L91.0902 38.1198L94.3986 37.6525L98.4614 37.1679L104.783 36.6878L107.297 36.3455L114.629 31.7478C113.811 31.5826 113.178 31.9261 112.394 31.9755L107.892 32.2592C107.173 32.3043 106.525 32.5677 105.828 32.6187L102.067 32.8899L97.5898 33.4019L92.3321 34.0646L88.9208 34.5843L86.1271 35.0441L83.3806 35.5244L80.6401 36.0193L77.9118 36.5109L75.9064 36.8954L67.1503 38.685L46.4669 43.6096L30.3824 47.9208L25.7216 49.2365L25.4942 48.7919L30.8415 46.8472C46.7834 41.0484 62.8263 36.1572 79.356 32.6624L81.2103 32.2704L83.6358 31.7703L86.1188 31.2701L88.4017 30.8117L91.1089 30.3262L94.0976 29.8464L97.6235 29.3775L101.576 28.9304L105.831 28.5077L122.693 28.42L116.59 33.2607L95.8253 49.5282C94.464 50.5948 93.2611 51.3639 92.0055 52.933L99.5948 55.4886C100.611 55.8305 102.231 55.8749 103.277 55.9038L107.559 56.0222C108.735 56.0547 110.037 55.6627 110.901 56.9553C110.194 57.0222 109.039 56.9503 108.474 57.17L102.331 59.5566C98.4715 61.0561 94.1671 61.6254 90.2781 60.0993L82.386 57.0019C80.1027 56.1059 74.7469 56.2344 72.1745 57.0019L64.4656 59.2995C63.7797 59.5039 62.6986 59.7848 61.9503 59.7803L56.9492 59.7504C52.3757 59.0714 47.7621 55.8491 43.6628 55.3222C39.7584 54.8204 35.8819 56.0548 32.174 57.3989L26.665 58.9478C22.2366 60.193 17.3977 58.502 13.2275 56.4314C9.98022 54.8183 6.6323 54.1391 3.07407 55.0608C2.05791 55.3177 0.988386 55.2687 0 54.9201L5.98337 53.4702C7.97068 52.9887 10.435 53.1264 12.6038 53.4012C16.1655 53.8526 19.3298 55.6785 22.7873 56.5672L25.242 57.1982C26.5415 57.569 27.9142 57.6023 29.2302 57.2949C31.0994 56.8917 32.9568 56.4471 34.859 55.7047L42.2304 52.8271C43.6709 52.2644 47.5439 52.129 49.3637 52.4702L51.7462 52.9168L53.6652 53.3929C55.9697 53.9646 58.0536 55.2544 60.4179 55.5655L63.2068 55.9329C64.9557 56.1633 66.9051 56.308 68.6821 55.9485L71.0619 55.4659C74.2585 54.4021 77.0831 52.9122 80.3739 52.3378C80.9094 52.2409 81.4279 52.0668 81.9132 51.821C84.6516 52.2627 86.7275 51.14 88.8961 49.579L101.951 40.1819L95.1059 40.2563L90.7014 40.723Z" fill="white"/>
<path id="Path 2" d="M64.4664 33.6798L50.1734 38.039C49.1429 38.3777 48.075 38.5898 46.9932 38.6706C49.3327 35.8775 52.0912 33.9305 55.1914 32.1373L62.9451 28.3957L67.4552 26.2516L78.2499 30.0285L74.8911 31.1272L64.4664 33.6798Z" fill="white"/>
<path id="Path 6" d="M24.356 30.9935L39.7561 31.3217L27.9044 34.7462L24.669 35.8796L16.5163 31.294C17.8819 30.0078 19.2109 29.7635 20.6579 29.4947L27.0805 28.3018L30.2669 27.7704C32.8387 27.3206 35.4703 27.3337 38.0375 27.8092L41.8087 28.1021L45.5583 28.5972L40.9374 29.1998C36.1248 29.8271 32.4853 28.6243 30.5922 29.1763L24.356 30.9935Z" fill="white"/>
<path id="Path 10" d="M63.7728 10.4893L61.0923 8.86381L58.478 10.519L58.0148 10.9848C57.878 11.1224 57.3318 10.8232 57.4058 10.6442L57.7649 9.77567C58.032 9.12953 58.0509 7.93695 58.4163 7.09637C57.5954 6.03571 56.2602 4.84126 55.088 3.89674C56.6058 3.85298 57.842 3.74622 59.259 3.33906C59.9431 3.14244 60.2723 1.68228 60.5437 0.9411L60.8671 0.0570645C60.934 -0.125338 61.5527 0.171476 61.6398 0.359506L63.2161 3.75826L67.2431 3.8697C66.9065 5.17997 64.3836 5.5615 63.9918 7.39162L64.6152 9.83819L65.0037 10.3977C65.1198 10.565 64.7257 11.1597 64.559 11.0422L63.7728 10.4893Z" fill="white"/>
<path id="Path 12" d="M38.6626 35.1734L53.4939 28.4926L47.585 28.2752C48.3649 27.936 49.1822 27.6901 50.0198 27.5425L53.2373 27.0291L56.165 26.572L60.2022 26.0562C61.5214 25.8879 62.7928 25.9346 64.2521 26.0295C63.0435 26.7954 61.8893 27.2884 60.5592 27.8052L49.2734 32.1926L41.033 35.0198C40.2587 35.2853 39.5204 35.611 38.6626 35.1734Z" fill="white"/>
<path id="Path 14" d="M48.6798 11.0094C48.2252 11.6971 47.7612 12.336 47.1526 12.8489C46.929 11.7815 47.0531 10.2146 46.026 9.77067L43.9354 8.8671L46.6211 7.45852L46.669 4.20075L49.2493 6.79768C50.0317 6.34253 50.8048 6.10433 51.7698 6.25813L50.5179 8.79942L51.8178 10.8965L48.6798 11.0094Z" fill="white"/>
<path id="Path 15" d="M73.8161 11.0225L70.5391 10.9242L72.0131 8.68313L70.6597 6.27517C71.8446 6.11183 72.3823 6.27517 73.244 6.8988L75.785 4.58743L75.8475 7.55355L78.5925 8.81958L76.2657 9.73535C75.8094 10.5794 75.4635 11.693 75.1041 12.9136L73.8161 11.0225Z" fill="white"/>
<path id="Path 16" d="M84.2313 16.0855L83.0925 18.621L82.288 16.2074L80.0832 15.9162C80.0015 14.9101 81.4446 14.4925 81.4252 13.8252C81.3968 12.8657 80.9346 12.7885 81.0818 11.8266C81.1538 11.3562 82.5199 13.0155 83.3904 12.7777C83.8523 12.6514 84.4633 12.2691 85.1102 11.8112C85.3854 12.2032 85.1865 12.9972 84.6564 13.8012L86.5778 15.9775L84.2313 16.0855Z" fill="white"/>
<path id="Path 17" d="M40.2761 16.0447L39.2661 18.6145L38.3262 16.1621L36.0199 15.8808L37.8176 13.596C37.2386 12.9755 36.9413 12.3029 37.2643 11.7454C37.8658 12.1227 38.6438 12.8156 39.164 12.7654C39.8065 12.7029 40.575 12.2809 41.5268 11.9237L40.9245 13.8248L42.5338 15.7265C41.8342 16.0722 41.3749 16.1227 40.2761 16.0447Z" fill="white"/>
</g>
</svg>
